<svg width="372" height="104" viewBox="0 0 372 104" fill="none" xmlns="http://www.w3.org/2000/svg">
<path d="M74.8902 11.7522C68.6401 8.14514 60.6481 10.2857 57.0397 16.5334L33.8086 56.7549C30.2001 63.0026 32.3415 70.9914 38.5916 74.5984L68.7697 92.0149C75.0198 95.622 83.0117 93.4814 86.6202 87.2337L102.808 59.2071C104.416 56.4235 104.94 53.1451 104.281 49.9991L100.407 31.5036C99.6455 27.8665 97.3702 24.7259 94.1509 22.868L74.8902 11.7522Z" fill="url(#paint0_linear_5761_135545)"/>
<path fill-rule="evenodd" clip-rule="evenodd" d="M74.3615 12.6679C68.6168 9.35246 61.2715 11.3202 57.9552 17.062L34.7241 57.2835C31.4079 63.0252 33.3757 70.3674 39.1202 73.6828L69.2983 91.0992C75.043 94.4146 82.3883 92.4469 85.7046 86.7051L101.892 58.6785C103.37 56.1203 103.852 53.1073 103.246 50.216L99.3725 31.7204C98.6724 28.3778 96.5812 25.4913 93.6222 23.7837L74.3615 12.6679ZM57.0397 16.5334C60.6481 10.2857 68.6401 8.14514 74.8902 11.7522L94.1509 22.868C97.3702 24.7259 99.6455 27.8665 100.407 31.5036L104.281 49.9991C104.94 53.1451 104.415 56.4235 102.808 59.2071L86.6202 87.2337C83.0117 93.4814 75.0198 95.622 68.7697 92.0149L38.5916 74.5984C32.3415 70.9914 30.2001 63.0026 33.8086 56.7549L57.0397 16.5334Z" fill="white" fill-opacity="0.4"/>
<path d="M42.8345 11.9851C36.5844 8.37805 28.5925 10.5186 24.984 16.7663L1.75289 56.9878C-1.85559 63.2355 0.285846 71.2243 6.53593 74.8313L36.714 92.2478C42.9641 95.8549 50.9561 93.7143 54.5645 87.4666L70.7521 59.44C72.3598 56.6564 72.8844 53.378 72.2255 50.2321L68.3517 31.7365C67.5899 28.0994 65.3145 24.9588 62.0952 23.1009L42.8345 11.9851Z" fill="url(#paint1_linear_5761_135545)"/>
<path fill-rule="evenodd" clip-rule="evenodd" d="M42.3059 12.9008C36.5612 9.58537 29.2159 11.5531 25.8996 17.2949L2.66846 57.5165C-0.64779 63.2581 1.32001 70.6004 7.06459 73.9157L37.2427 91.3321C42.9874 94.6475 50.3326 92.6798 53.649 86.938L69.8365 58.9114C71.3141 56.3532 71.7962 53.3402 71.1906 50.4489L67.3168 31.9533C66.6167 28.6107 64.5255 25.7242 61.5666 24.0166L42.3059 12.9008ZM24.984 16.7663C28.5925 10.5186 36.5844 8.37805 42.8345 11.9851L62.0952 23.1009C65.3145 24.9588 67.5899 28.0994 68.3517 31.7365L72.2255 50.2321C72.8844 53.378 72.3598 56.6564 70.7521 59.44L54.5645 87.4666C50.9561 93.7143 42.9641 95.8549 36.714 92.2478L6.53593 74.8313C0.285846 71.2243 -1.85559 63.2355 1.75289 56.9878L24.984 16.7663Z" fill="white" fill-opacity="0.4"/>
<path d="M128.559 85.5969V41.9931H137.189L137.962 45.0202H138.22C139.422 43.9039 140.796 43.0021 142.342 42.3151C143.888 41.5852 145.455 41.2202 147.044 41.2202C149.62 41.2202 151.831 41.9072 153.677 43.2812C155.567 44.6123 157.005 46.5016 157.993 48.9491C159.023 51.3966 159.539 54.2734 159.539 57.5797C159.539 61.2294 158.894 64.3639 157.606 66.9832C156.318 69.5595 154.644 71.5346 152.583 72.9087C150.564 74.2397 148.418 74.9053 146.142 74.9053C144.811 74.9053 143.523 74.6262 142.277 74.068C141.032 73.5098 139.873 72.7154 138.799 71.6849L139.186 76.5799V85.5969H128.559ZM143.566 66.2103C144.51 66.2103 145.369 65.9527 146.142 65.4374C146.915 64.8792 147.516 63.9775 147.945 62.7323C148.418 61.4441 148.654 59.7481 148.654 57.6441C148.654 55.8836 148.46 54.4237 148.074 53.2644C147.731 52.1051 147.194 51.2678 146.464 50.7525C145.777 50.1943 144.918 49.9152 143.888 49.9152C143.029 49.9152 142.234 50.1084 141.504 50.4949C140.775 50.8384 140.002 51.461 139.186 52.3627V64.5357C139.916 65.1368 140.646 65.5662 141.376 65.8238C142.149 66.0815 142.879 66.2103 143.566 66.2103Z" fill="#0D0D0D"/>
<path d="M174.876 74.9053C170.882 74.9053 167.683 73.4024 165.279 70.3968C162.917 67.3911 161.736 63.2905 161.736 58.0949C161.736 54.574 162.359 51.5683 163.604 49.0779C164.892 46.5446 166.546 44.6123 168.564 43.2812C170.582 41.9072 172.686 41.2202 174.876 41.2202C176.636 41.2202 178.096 41.5208 179.255 42.1219C180.415 42.6801 181.488 43.453 182.476 44.4406L182.089 39.8032V29.2404H192.716V74.1324H184.086L183.313 71.1052H183.055C181.982 72.1787 180.694 73.0804 179.191 73.8104C177.731 74.5403 176.293 74.9053 174.876 74.9053ZM177.709 66.2103C178.611 66.2103 179.406 66.0385 180.093 65.695C180.823 65.3515 181.488 64.7074 182.089 63.7628V51.5898C181.402 50.9457 180.651 50.5163 179.835 50.3017C179.019 50.044 178.225 49.9152 177.452 49.9152C176.636 49.9152 175.842 50.1943 175.069 50.7525C174.339 51.2678 173.738 52.1265 173.265 53.3288C172.836 54.4881 172.621 56.0339 172.621 57.9661C172.621 60.8859 173.072 62.9899 173.974 64.2781C174.876 65.5662 176.121 66.2103 177.709 66.2103Z" fill="#0D0D0D"/>
<path d="M201.677 74.1324V41.2846C201.677 38.966 202.064 36.8405 202.836 34.9083C203.609 32.9761 204.897 31.4303 206.701 30.271C208.547 29.0687 211.016 28.4675 214.108 28.4675C215.611 28.4675 216.942 28.5964 218.101 28.854C219.26 29.1116 220.184 29.3692 220.871 29.6269L218.874 37.1625C217.8 36.9049 216.748 36.7761 215.718 36.7761C214.644 36.7761 213.807 37.0767 213.206 37.6778C212.605 38.2789 212.304 39.3524 212.304 40.8982V74.1324H201.677ZM196.911 50.3017V42.3795L202.386 41.9931H216.038V50.3017H196.911Z" fill="#0D0D0D"/>
<path d="M236.809 74.7121C233.374 74.7121 230.948 73.7245 229.531 71.7493C228.157 69.7312 227.47 67.1335 227.47 63.956V47.5321H222.897V43.0236L227.792 42.7016L228.501 32.7184H233.46V42.7016H241.833V47.5321H233.46V64.0204C233.46 65.9097 233.825 67.3696 234.555 68.4001C235.285 69.3877 236.487 69.8815 238.162 69.8815C238.763 69.8815 239.343 69.8386 239.901 69.7527C240.502 69.6668 241.082 69.4736 241.64 69.173L242.864 73.3595C242.048 73.746 241.103 74.068 240.03 74.3256C238.999 74.5832 237.926 74.7121 236.809 74.7121Z" fill="#0D0D0D"/>
<path d="M261.138 74.9053C258.561 74.9053 256.157 74.2612 253.924 72.9731C251.691 71.6849 249.888 69.8171 248.514 67.3696C247.14 64.8792 246.453 61.9165 246.453 58.4814C246.453 54.9605 247.14 51.9762 248.514 49.5288C249.888 47.0813 251.691 45.2135 253.924 43.9253C256.157 42.5942 258.561 41.9287 261.138 41.9287C263.714 41.9287 266.119 42.5942 268.351 43.9253C270.584 45.2135 272.388 47.0813 273.762 49.5288C275.136 51.9762 275.823 54.9605 275.823 58.4814C275.823 61.9165 275.136 64.8792 273.762 67.3696C272.388 69.8171 270.584 71.6849 268.351 72.9731C266.119 74.2612 263.714 74.9053 261.138 74.9053ZM261.138 69.9459C262.855 69.9459 264.358 69.4736 265.646 68.529C266.934 67.5843 267.922 66.2532 268.609 64.5357C269.339 62.7752 269.704 60.7571 269.704 58.4814C269.704 56.1627 269.339 54.1446 268.609 52.4271C267.922 50.6666 266.934 49.3141 265.646 48.3694C264.358 47.3819 262.855 46.8881 261.138 46.8881C259.42 46.8881 257.917 47.3819 256.629 48.3694C255.384 49.3141 254.396 50.6666 253.666 52.4271C252.979 54.1446 252.636 56.1627 252.636 58.4814C252.636 60.7571 252.979 62.7752 253.666 64.5357C254.396 66.2532 255.384 67.5843 256.629 68.529C257.917 69.4736 259.42 69.9459 261.138 69.9459Z" fill="#0D0D0D"/>
<path d="M294.884 74.9053C292.307 74.9053 289.903 74.2612 287.67 72.9731C285.437 71.6849 283.634 69.8171 282.26 67.3696C280.886 64.8792 280.199 61.9165 280.199 58.4814C280.199 54.9605 280.886 51.9762 282.26 49.5288C283.634 47.0813 285.437 45.2135 287.67 43.9253C289.903 42.5942 292.307 41.9287 294.884 41.9287C297.46 41.9287 299.865 42.5942 302.097 43.9253C304.33 45.2135 306.134 47.0813 307.508 49.5288C308.882 51.9762 309.569 54.9605 309.569 58.4814C309.569 61.9165 308.882 64.8792 307.508 67.3696C306.134 69.8171 304.33 71.6849 302.097 72.9731C299.865 74.2612 297.46 74.9053 294.884 74.9053ZM294.884 69.9459C296.601 69.9459 298.104 69.4736 299.392 68.529C300.68 67.5843 301.668 66.2532 302.355 64.5357C303.085 62.7752 303.45 60.7571 303.45 58.4814C303.45 56.1627 303.085 54.1446 302.355 52.4271C301.668 50.6666 300.68 49.3141 299.392 48.3694C298.104 47.3819 296.601 46.8881 294.884 46.8881C293.166 46.8881 291.663 47.3819 290.375 48.3694C289.13 49.3141 288.142 50.6666 287.412 52.4271C286.725 54.1446 286.382 56.1627 286.382 58.4814C286.382 60.7571 286.725 62.7752 287.412 64.5357C288.142 66.2532 289.13 67.5843 290.375 68.529C291.663 69.4736 293.166 69.9459 294.884 69.9459Z" fill="#0D0D0D"/>
<path d="M316.199 74.1324V28.4031H322.189V74.1324H316.199Z" fill="#0D0D0D"/>
<path d="M340.157 74.9053C337.881 74.9053 335.713 74.5188 333.652 73.746C331.591 72.9301 329.83 71.8137 328.37 70.3968L331.076 66.9188C332.45 68.0352 333.867 68.8939 335.327 69.4951C336.829 70.0533 338.504 70.3324 340.35 70.3324C342.283 70.3324 343.721 69.903 344.666 69.0442C345.653 68.1425 346.147 67.0691 346.147 65.8238C346.147 64.7933 345.803 63.9346 345.116 63.2475C344.472 62.5605 343.614 61.9809 342.54 61.5085C341.51 61.0362 340.393 60.5854 339.191 60.156C337.645 59.5978 336.164 58.9323 334.747 58.1594C333.373 57.3865 332.256 56.4418 331.398 55.3254C330.539 54.1661 330.11 52.7277 330.11 51.0101C330.11 48.3909 331.076 46.2225 333.008 44.505C334.983 42.7875 337.688 41.9287 341.123 41.9287C343.141 41.9287 344.988 42.2722 346.662 42.9592C348.38 43.6462 349.861 44.505 351.106 45.5355L348.401 49.0135C347.285 48.1977 346.147 47.5965 344.988 47.2101C343.828 46.7807 342.583 46.566 341.252 46.566C339.363 46.566 337.967 46.9954 337.066 47.8542C336.207 48.67 335.777 49.6146 335.777 50.6881C335.777 51.5898 336.056 52.3412 336.615 52.9424C337.173 53.5435 337.924 54.0802 338.869 54.5525C339.856 54.9819 341.016 55.4113 342.347 55.8407C343.979 56.4418 345.524 57.1288 346.984 57.9017C348.444 58.6317 349.603 59.5978 350.462 60.8001C351.364 62.0023 351.815 63.5481 351.815 65.4374C351.815 67.1549 351.364 68.7436 350.462 70.2035C349.603 71.6205 348.294 72.7584 346.533 73.6171C344.816 74.4759 342.69 74.9053 340.157 74.9053Z" fill="#0D0D0D"/>
<defs>
<linearGradient id="paint0_linear_5761_135545" x1="102.216" y1="46.2417" x2="46.7149" y2="72.684" gradientUnits="userSpaceOnUse">
<stop stop-color="#6699FF"/>
<stop offset="0.411665" stop-color="#0D59F2"/>
<stop offset="1" stop-color="#610BDA"/>
</linearGradient>
<linearGradient id="paint1_linear_5761_135545" x1="0.0134592" y1="67.3868" x2="50.5759" y2="60.4556" gradientUnits="userSpaceOnUse">
<stop stop-color="#6EF7EC"/>
<stop offset="1" stop-color="#33A7FF" stop-opacity="0.9"/>
</linearGradient>
</defs>
</svg>
